<?xml version="1.0" encoding="UTF-8"?>
<svg version="1.1" xmlns="http://www.w3.org/2000/svg" width="500" height="500">
<path d="M0 0 C165 0 330 0 500 0 C500 165 500 330 500 500 C335 500 170 500 0 500 C0 335 0 170 0 0 Z " fill="#FEFEFF" transform="translate(0,0)"/>
<path d="M0 0 C1.12468267 0.94389643 2.24653314 1.89116816 3.3671875 2.83984375 C3.99222168 3.36698975 4.61725586 3.89413574 5.26123047 4.43725586 C7.46790032 6.42053215 9.19358997 8.65166696 11 11 C15.47691822 15.84999474 21.77022076 22.53071976 28.640625 23.29296875 C32.97885848 22.91463444 35.95641543 21.34982064 39.75 19.3125 C40.45084717 18.950354 41.15169434 18.58820801 41.8737793 18.21508789 C44.98193212 16.60720071 48.07012757 14.96272577 51.16015625 13.3203125 C52.03542969 12.86398438 52.91070312 12.40765625 53.8125 11.9375 C54.56144531 11.53402344 55.31039062 11.13054688 56.08203125 10.71484375 C58 10 58 10 61 11 C62.08740234 12.73071289 62.08740234 12.73071289 63.0859375 14.97265625 C63.45976562 15.79056641 63.83359375 16.60847656 64.21875 17.45117188 C64.6003125 18.31291016 64.981875 19.17464844 65.375 20.0625 C69.95232194 31.35404241 69.95232194 31.35404241 78 40 C86.7627363 40.84552719 94.67706556 39.89800868 103.16796875 37.66796875 C106.59464884 36.85974489 109.50521402 36.75617772 113 37 C115.3496625 44.29850918 116.27554852 51.79331149 117.32421875 59.37109375 C118.30592364 67.12702392 118.30592364 67.12702392 123 73 C126.11567257 74.10259726 129.24311859 74.66173082 132.5 75.1875 C133.39041992 75.34766602 134.28083984 75.50783203 135.19824219 75.67285156 C137.79583471 76.13546235 140.3967155 76.57075693 143 77 C144.32832942 77.22928763 145.65648069 77.459612 146.984375 77.69140625 C149.65363908 78.14799089 152.32377058 78.58659871 155 79 C154.61945551 85.2990128 154.18860498 91.4940867 152.9375 97.6875 C152.2652341 101.23499546 151.74562652 104.70383044 151.5625 108.3125 C151.52253906 109.07175781 151.48257812 109.83101563 151.44140625 110.61328125 C152.44063741 114.88272347 155.16893969 117.81144364 158.76586914 120.14624023 C160.73300223 121.1926734 162.72153902 122.14081924 164.75 123.0625 C166.17259688 123.7393703 167.59447675 124.41774969 169.015625 125.09765625 C169.69818359 125.42008301 170.38074219 125.74250977 171.08398438 126.07470703 C174.81657699 127.87727151 178.41244116 129.92718822 182 132 C181.41967455 135.57893643 180.47656403 138.35707602 178.75 141.5390625 C178.3065625 142.36664063 177.863125 143.19421875 177.40625 144.046875 C176.71015625 145.32304687 176.71015625 145.32304687 176 146.625 C175.08137187 148.32446204 174.16462163 150.02494087 173.25 151.7265625 C172.84265625 152.47502441 172.4353125 153.22348633 172.015625 153.99462891 C169.67326187 158.61966996 169.08175226 162.92119612 170 168 C174.51223224 177.14365551 184.53451828 184.26306867 192 191 C190.48123262 194.18941149 188.91059243 196.33246836 186.375 198.8125 C185.66601562 199.50730469 184.95703125 200.20210937 184.2265625 200.91796875 C182.11811432 202.88955275 179.95495406 204.76276352 177.75 206.625 C173.28844159 210.51568972 170.35833864 213.65089113 169.4375 219.6875 C169.75691152 225.31978987 172.4744668 230.06145737 175 235 C175.95416972 236.8710199 176.90674567 238.74278715 177.85522461 240.61669922 C178.77517715 242.42657269 179.70956054 244.22908896 180.64453125 246.03125 C182 249 182 249 182 252 C181.29915283 252.33733154 180.59830566 252.67466309 179.8762207 253.0222168 C176.68302059 254.56663175 173.49780276 256.12686631 170.3125 257.6875 C168.65831055 258.48317383 168.65831055 258.48317383 166.97070312 259.29492188 C161.50566656 261.98616345 156.90921953 264.27316593 153 269 C152.67 269.33 152.34 269.66 152 270 C151.25409976 278.06146029 152.51254433 285.5258841 154.34375 293.359375 C155.06717718 297.37267343 155.10751386 300.9323924 155 305 C153.72153198 305.20363159 153.72153198 305.20363159 152.41723633 305.41137695 C149.23821486 305.92292123 146.06093961 306.44398604 142.88452148 306.97143555 C141.51274504 307.19723638 140.14034718 307.41929663 138.76733398 307.63745117 C136.78728298 307.95273677 134.80961319 308.28286232 132.83203125 308.61328125 C131.64327393 308.80704346 130.4545166 309.00080566 129.22973633 309.20043945 C124.96757905 310.25558838 122.042696 311.69543971 119.2890625 315.140625 C117.57303374 318.94708879 116.97608493 322.63803264 116.375 326.75 C116.25382812 327.51054687 116.13265625 328.27109375 116.0078125 329.0546875 C115.27642762 333.74509054 114.71432321 338.43520011 114.26806641 343.16113281 C114 345 114 345 113 347 C108.32389991 347.32623954 104.54029686 346.69245774 100 345.5 C94.95170986 344.28467089 90.17205088 343.61731476 85 343.5 C83.783125 343.4690625 82.56625 343.438125 81.3125 343.40625 C77.01791266 344.17603452 75.85921919 345.75899342 73 349 C71.18951552 351.8557409 71.18951552 351.8557409 69.66796875 354.95703125 C69.09755859 356.06884766 68.52714844 357.18066406 67.93945312 358.32617188 C67.36130859 359.47666016 66.78316406 360.62714844 66.1875 361.8125 C65.59001953 362.98232422 64.99253906 364.15214844 64.37695312 365.35742188 C62.90930313 368.23401587 61.45069323 371.11482774 60 374 C56.44977274 373.42195618 53.6872361 372.49993167 50.53125 370.78515625 C49.71269531 370.34623047 48.89414062 369.90730469 48.05078125 369.45507812 C47.20902344 368.99552734 46.36726562 368.53597656 45.5 368.0625 C35.84541291 362.31256657 35.84541291 362.31256657 25 361 C15.52457541 366.07843818 8.09368046 376.12838233 1 384 C-4.65484417 379.27798818 -9.81239147 374.24367261 -14.92578125 368.94726562 C-20.02992817 363.34066773 -20.02992817 363.34066773 -26.89160156 360.83691406 C-34.04525171 361.15435528 -39.7529245 364.63742579 -45.875 368.0625 C-47.91116518 369.18366345 -49.95010496 370.29980719 -51.9921875 371.41015625 C-52.88276855 371.90652588 -53.77334961 372.40289551 -54.69091797 372.91430664 C-57 374 -57 374 -60 374 C-60.34256836 373.29915283 -60.68513672 372.59830566 -61.03808594 371.8762207 C-62.60233739 368.68513718 -64.17605928 365.49881488 -65.75 362.3125 C-66.28882813 361.20970703 -66.82765625 360.10691406 -67.3828125 358.97070312 C-67.91132813 357.90400391 -68.43984375 356.83730469 -68.984375 355.73828125 C-69.46616211 354.75899658 -69.94794922 353.77971191 -70.44433594 352.77075195 C-72.40349844 349.28133964 -74.34240941 345.8287953 -78 344 C-86.26180805 343.31261757 -94.10116697 344.32619516 -102.17407227 345.93261719 C-105.84128455 346.65890032 -109.25768901 347.17542083 -113 347 C-113.30488466 345.37394851 -113.60975258 343.74789387 -113.91455078 342.12182617 C-114.18217988 340.69485408 -114.45008828 339.26793435 -114.71826172 337.84106445 C-115.42935008 334.0553694 -116.13578796 330.26892426 -116.83203125 326.48046875 C-116.96504639 325.76052734 -117.09806152 325.04058594 -117.23510742 324.29882812 C-117.4908899 322.91372678 -117.74501577 321.52831828 -117.99731445 320.14257812 C-118.51638239 317.34082753 -119.09722397 314.70832808 -120 312 C-126.73839937 308.77383238 -134.6719569 308.20281488 -142 307.375 C-144.04203722 307.13595704 -146.08372736 306.89392388 -148.125 306.6484375 C-149.01445312 306.54708496 -149.90390625 306.44573242 -150.8203125 306.34130859 C-153 306 -153 306 -155 305 C-154.62615657 299.2742927 -154.23812063 293.66162568 -152.9375 288.0625 C-151.70081018 282.18346684 -150.88780726 275.93428712 -152 270 C-155.75640982 265.02427167 -160.98766204 262.61879833 -166.4375 259.875 C-167.27087891 259.44574219 -168.10425781 259.01648438 -168.96289062 258.57421875 C-173.29195064 256.34980056 -177.64250808 254.16811793 -182 252 C-181.41665678 248.2832468 -180.3827963 245.50895804 -178.53125 242.2421875 C-178.04269531 241.36949219 -177.55414063 240.49679687 -177.05078125 239.59765625 C-176.53902344 238.69917969 -176.02726562 237.80070313 -175.5 236.875 C-174.48742275 235.08194758 -173.47691177 233.28772628 -172.46875 231.4921875 C-172.01951172 230.70183105 -171.57027344 229.91147461 -171.10742188 229.09716797 C-168.87312463 224.86599218 -167.80969949 220.68131612 -169 216 C-171.5474309 212.23981233 -174.76813566 209.16554269 -178 206 C-179.16574897 204.82589081 -180.32972636 203.65002074 -181.4921875 202.47265625 C-184.6404603 199.29347173 -187.81416322 196.14152066 -191 193 C-189.56352279 189.68887631 -187.79082171 187.58838673 -185.19140625 185.1015625 C-184.44439453 184.37453125 -183.69738281 183.6475 -182.92773438 182.8984375 C-181.35684363 181.38851444 -179.78393945 179.88068319 -178.20898438 178.375 C-171.43286747 171.9161218 -171.43286747 171.9161218 -168.77783203 163.17871094 C-169.02849691 159.59227494 -169.9291424 157.47837646 -171.58984375 154.3046875 C-172.12673828 153.25925781 -172.66363281 152.21382812 -173.21679688 151.13671875 C-173.78462891 150.06035156 -174.35246094 148.98398438 -174.9375 147.875 C-176.05421886 145.7283473 -177.16764517 143.57997769 -178.27734375 141.4296875 C-178.77484131 140.48335449 -179.27233887 139.53702148 -179.78491211 138.56201172 C-180.83676506 136.34418073 -181.52407175 134.39619832 -182 132 C-180.97261719 131.49210938 -179.94523437 130.98421875 -178.88671875 130.4609375 C-172.46194406 127.27535566 -166.03904158 124.07943712 -159.6875 120.75 C-158.84574219 120.31171875 -158.00398438 119.8734375 -157.13671875 119.421875 C-154.68373564 117.78954254 -153.41925189 116.59069789 -152 114 C-150.75379073 104.38464027 -152.46733847 94.8920302 -154.34375 85.484375 C-155 82 -155 82 -155 79 C-149.19014335 77.71499641 -143.40850653 76.77631957 -137.5 76.0625 C-134.99828384 75.72066631 -132.49811709 75.36721249 -130 75 C-128.47632813 74.78150391 -128.47632813 74.78150391 -126.921875 74.55859375 C-124.23793253 73.99747712 -122.34853124 73.40711454 -120 72 C-116.46552369 65.17055523 -115.93439971 56.38343387 -114.8125 48.875 C-114.63525391 47.72773437 -114.45800781 46.58046875 -114.27539062 45.3984375 C-113.84394338 42.59986079 -113.4189503 39.80046989 -113 37 C-111.27834064 37.14084925 -109.55705691 37.28629331 -107.8359375 37.43359375 C-106.8773584 37.51407959 -105.9187793 37.59456543 -104.93115234 37.67749023 C-102.11198473 37.98767851 -99.39814878 38.47527692 -96.625 39.0625 C-85.70268928 41.2728137 -85.70268928 41.2728137 -75.52416992 38.35107422 C-72.69550162 35.71638269 -71.3515344 33.39104059 -69.66796875 29.921875 C-69.09755859 28.76171875 -68.52714844 27.6015625 -67.93945312 26.40625 C-67.35520235 25.18762769 -66.77122128 23.96887603 -66.1875 22.75 C-65.58510326 21.51507858 -64.98159799 20.28069725 -64.37695312 19.046875 C-62.90698477 16.0363798 -61.44852515 13.02085587 -60 10 C-56.28098549 10.58382756 -53.50635811 11.62288013 -50.234375 13.46875 C-49.34363281 13.95730469 -48.45289063 14.44585937 -47.53515625 14.94921875 C-45.69030068 15.97643847 -43.84908234 17.01022013 -42.01171875 18.05078125 C-33.96429998 22.48902146 -33.96429998 22.48902146 -25 23 C-21.86187856 21.47947475 -19.5173267 19.39025012 -17 17 C-16.2678125 16.30938477 -15.535625 15.61876953 -14.78125 14.90722656 C-12.48425208 12.68004322 -10.23697434 10.41237411 -8 8.125 C-6.83791016 6.949375 -6.83791016 6.949375 -5.65234375 5.75 C-3.76352907 3.83786662 -1.87958609 1.92119818 0 0 Z " fill="#8C52FF" transform="translate(250,50)"/>
<path d="M0 0 C1.12468267 0.94389643 2.24653314 1.89116816 3.3671875 2.83984375 C3.99222168 3.36698975 4.61725586 3.89413574 5.26123047 4.43725586 C7.46790032 6.42053215 9.19358997 8.65166696 11 11 C15.47691822 15.84999474 21.77022076 22.53071976 28.640625 23.29296875 C32.97885848 22.91463444 35.95641543 21.34982064 39.75 19.3125 C40.45084717 18.950354 41.15169434 18.58820801 41.8737793 18.21508789 C44.98193212 16.60720071 48.07012757 14.96272577 51.16015625 13.3203125 C52.03542969 12.86398438 52.91070312 12.40765625 53.8125 11.9375 C54.56144531 11.53402344 55.31039062 11.13054688 56.08203125 10.71484375 C58 10 58 10 61 11 C62.08740234 12.73071289 62.08740234 12.73071289 63.0859375 14.97265625 C63.45976562 15.79056641 63.83359375 16.60847656 64.21875 17.45117188 C64.6003125 18.31291016 64.981875 19.17464844 65.375 20.0625 C69.95232194 31.35404241 69.95232194 31.35404241 78 40 C86.7627363 40.84552719 94.67706556 39.89800868 103.16796875 37.66796875 C106.59464884 36.85974489 109.50521402 36.75617772 113 37 C115.3496625 44.29850918 116.27554852 51.79331149 117.32421875 59.37109375 C118.30592364 67.12702392 118.30592364 67.12702392 123 73 C126.11567257 74.10259726 129.24311859 74.66173082 132.5 75.1875 C133.39041992 75.34766602 134.28083984 75.50783203 135.19824219 75.67285156 C137.79583471 76.13546235 140.3967155 76.57075693 143 77 C144.32832942 77.22928763 145.65648069 77.459612 146.984375 77.69140625 C149.65363908 78.14799089 152.32377058 78.58659871 155 79 C154.61945551 85.2990128 154.18860498 91.4940867 152.9375 97.6875 C152.2652341 101.23499546 151.74562652 104.70383044 151.5625 108.3125 C151.52253906 109.07175781 151.48257812 109.83101563 151.44140625 110.61328125 C152.44063741 114.88272347 155.16893969 117.81144364 158.76586914 120.14624023 C160.73300223 121.1926734 162.72153902 122.14081924 164.75 123.0625 C166.17259688 123.7393703 167.59447675 124.41774969 169.015625 125.09765625 C169.69818359 125.42008301 170.38074219 125.74250977 171.08398438 126.07470703 C174.81657699 127.87727151 178.41244116 129.92718822 182 132 C181.41967455 135.57893643 180.47656403 138.35707602 178.75 141.5390625 C178.3065625 142.36664063 177.863125 143.19421875 177.40625 144.046875 C176.71015625 145.32304687 176.71015625 145.32304687 176 146.625 C175.08137187 148.32446204 174.16462163 150.02494087 173.25 151.7265625 C172.84265625 152.47502441 172.4353125 153.22348633 172.015625 153.99462891 C169.67326187 158.61966996 169.08175226 162.92119612 170 168 C174.51223224 177.14365551 184.53451828 184.26306867 192 191 C190.48123262 194.18941149 188.91059243 196.33246836 186.375 198.8125 C185.66601562 199.50730469 184.95703125 200.20210937 184.2265625 200.91796875 C182.11811432 202.88955275 179.95495406 204.76276352 177.75 206.625 C173.28844159 210.51568972 170.35833864 213.65089113 169.4375 219.6875 C169.75691152 225.31978987 172.4744668 230.06145737 175 235 C175.95416972 236.8710199 176.90674567 238.74278715 177.85522461 240.61669922 C178.77517715 242.42657269 179.70956054 244.22908896 180.64453125 246.03125 C182 249 182 249 182 252 C181.29915283 252.33733154 180.59830566 252.67466309 179.8762207 253.0222168 C176.68302059 254.56663175 173.49780276 256.12686631 170.3125 257.6875 C168.65831055 258.48317383 168.65831055 258.48317383 166.97070312 259.29492188 C161.50566656 261.98616345 156.90921953 264.27316593 153 269 C152.67 269.33 152.34 269.66 152 270 C151.25409976 278.06146029 152.51254433 285.5258841 154.34375 293.359375 C155.06717718 297.37267343 155.10751386 300.9323924 155 305 C153.72153198 305.20363159 153.72153198 305.20363159 152.41723633 305.41137695 C149.23821486 305.92292123 146.06093961 306.44398604 142.88452148 306.97143555 C141.51274504 307.19723638 140.14034718 307.41929663 138.76733398 307.63745117 C136.78728298 307.95273677 134.80961319 308.28286232 132.83203125 308.61328125 C131.64327393 308.80704346 130.4545166 309.00080566 129.22973633 309.20043945 C124.96757905 310.25558838 122.042696 311.69543971 119.2890625 315.140625 C117.57303374 318.94708879 116.97608493 322.63803264 116.375 326.75 C116.25382812 327.51054687 116.13265625 328.27109375 116.0078125 329.0546875 C115.27642762 333.74509054 114.71432321 338.43520011 114.26806641 343.16113281 C114 345 114 345 113 347 C108.32389991 347.32623954 104.54029686 346.69245774 100 345.5 C94.95170986 344.28467089 90.17205088 343.61731476 85 343.5 C83.783125 343.4690625 82.56625 343.438125 81.3125 343.40625 C77.01791266 344.17603452 75.85921919 345.75899342 73 349 C71.18951552 351.8557409 71.18951552 351.8557409 69.66796875 354.95703125 C69.09755859 356.06884766 68.52714844 357.18066406 67.93945312 358.32617188 C67.36130859 359.47666016 66.78316406 360.62714844 66.1875 361.8125 C65.59001953 362.98232422 64.99253906 364.15214844 64.37695312 365.35742188 C62.90930313 368.23401587 61.45069323 371.11482774 60 374 C56.44977274 373.42195618 53.6872361 372.49993167 50.53125 370.78515625 C49.71269531 370.34623047 48.89414062 369.90730469 48.05078125 369.45507812 C47.20902344 368.99552734 46.36726562 368.53597656 45.5 368.0625 C35.84541291 362.31256657 35.84541291 362.31256657 25 361 C15.52457541 366.07843818 8.09368046 376.12838233 1 384 C-4.65484417 379.27798818 -9.81239147 374.24367261 -14.92578125 368.94726562 C-20.02992817 363.34066773 -20.02992817 363.34066773 -26.89160156 360.83691406 C-34.04525171 361.15435528 -39.7529245 364.63742579 -45.875 368.0625 C-47.91116518 369.18366345 -49.95010496 370.29980719 -51.9921875 371.41015625 C-52.88276855 371.90652588 -53.77334961 372.40289551 -54.69091797 372.91430664 C-57 374 -57 374 -60 374 C-60.34256836 373.29915283 -60.68513672 372.59830566 -61.03808594 371.8762207 C-62.60233739 368.68513718 -64.17605928 365.49881488 -65.75 362.3125 C-66.28882813 361.20970703 -66.82765625 360.10691406 -67.3828125 358.97070312 C-67.91132813 357.90400391 -68.43984375 356.83730469 -68.984375 355.73828125 C-69.46616211 354.75899658 -69.94794922 353.77971191 -70.44433594 352.77075195 C-72.40349844 349.28133964 -74.34240941 345.8287953 -78 344 C-86.26180805 343.31261757 -94.10116697 344.32619516 -102.17407227 345.93261719 C-105.84128455 346.65890032 -109.25768901 347.17542083 -113 347 C-113.30488466 345.37394851 -113.60975258 343.74789387 -113.91455078 342.12182617 C-114.18217988 340.69485408 -114.45008828 339.26793435 -114.71826172 337.84106445 C-115.42935008 334.0553694 -116.13578796 330.26892426 -116.83203125 326.48046875 C-116.96504639 325.76052734 -117.09806152 325.04058594 -117.23510742 324.29882812 C-117.4908899 322.91372678 -117.74501577 321.52831828 -117.99731445 320.14257812 C-118.51638239 317.34082753 -119.09722397 314.70832808 -120 312 C-126.73839937 308.77383238 -134.6719569 308.20281488 -142 307.375 C-144.04203722 307.13595704 -146.08372736 306.89392388 -148.125 306.6484375 C-149.01445312 306.54708496 -149.90390625 306.44573242 -150.8203125 306.34130859 C-153 306 -153 306 -155 305 C-154.62615657 299.2742927 -154.23812063 293.66162568 -152.9375 288.0625 C-151.70081018 282.18346684 -150.88780726 275.93428712 -152 270 C-155.75640982 265.02427167 -160.98766204 262.61879833 -166.4375 259.875 C-167.27087891 259.44574219 -168.10425781 259.01648438 -168.96289062 258.57421875 C-173.29195064 256.34980056 -177.64250808 254.16811793 -182 252 C-181.41665678 248.2832468 -180.3827963 245.50895804 -178.53125 242.2421875 C-178.04269531 241.36949219 -177.55414063 240.49679687 -177.05078125 239.59765625 C-176.53902344 238.69917969 -176.02726562 237.80070313 -175.5 236.875 C-174.48742275 235.08194758 -173.47691177 233.28772628 -172.46875 231.4921875 C-172.01951172 230.70183105 -171.57027344 229.91147461 -171.10742188 229.09716797 C-168.87312463 224.86599218 -167.80969949 220.68131612 -169 216 C-171.5474309 212.23981233 -174.76813566 209.16554269 -178 206 C-179.16574897 204.82589081 -180.32972636 203.65002074 -181.4921875 202.47265625 C-184.6404603 199.29347173 -187.81416322 196.14152066 -191 193 C-189.56352279 189.68887631 -187.79082171 187.58838673 -185.19140625 185.1015625 C-184.44439453 184.37453125 -183.69738281 183.6475 -182.92773438 182.8984375 C-181.35684363 181.38851444 -179.78393945 179.88068319 -178.20898438 178.375 C-171.43286747 171.9161218 -171.43286747 171.9161218 -168.77783203 163.17871094 C-169.02849691 159.59227494 -169.9291424 157.47837646 -171.58984375 154.3046875 C-172.12673828 153.25925781 -172.66363281 152.21382812 -173.21679688 151.13671875 C-173.78462891 150.06035156 -174.35246094 148.98398438 -174.9375 147.875 C-176.05421886 145.7283473 -177.16764517 143.57997769 -178.27734375 141.4296875 C-178.77484131 140.48335449 -179.27233887 139.53702148 -179.78491211 138.56201172 C-180.83676506 136.34418073 -181.52407175 134.39619832 -182 132 C-180.97261719 131.49210938 -179.94523437 130.98421875 -178.88671875 130.4609375 C-172.46194406 127.27535566 -166.03904158 124.07943712 -159.6875 120.75 C-158.84574219 120.31171875 -158.00398438 119.8734375 -157.13671875 119.421875 C-154.68373564 117.78954254 -153.41925189 116.59069789 -152 114 C-150.75379073 104.38464027 -152.46733847 94.8920302 -154.34375 85.484375 C-155 82 -155 82 -155 79 C-149.19014335 77.71499641 -143.40850653 76.77631957 -137.5 76.0625 C-134.99828384 75.72066631 -132.49811709 75.36721249 -130 75 C-128.47632813 74.78150391 -128.47632813 74.78150391 -126.921875 74.55859375 C-124.23793253 73.99747712 -122.34853124 73.40711454 -120 72 C-116.46552369 65.17055523 -115.93439971 56.38343387 -114.8125 48.875 C-114.63525391 47.72773437 -114.45800781 46.58046875 -114.27539062 45.3984375 C-113.84394338 42.59986079 -113.4189503 39.80046989 -113 37 C-111.27834064 37.14084925 -109.55705691 37.28629331 -107.8359375 37.43359375 C-106.8773584 37.51407959 -105.9187793 37.59456543 -104.93115234 37.67749023 C-102.11198473 37.98767851 -99.39814878 38.47527692 -96.625 39.0625 C-85.70268928 41.2728137 -85.70268928 41.2728137 -75.52416992 38.35107422 C-72.69550162 35.71638269 -71.3515344 33.39104059 -69.66796875 29.921875 C-69.09755859 28.76171875 -68.52714844 27.6015625 -67.93945312 26.40625 C-67.35520235 25.18762769 -66.77122128 23.96887603 -66.1875 22.75 C-65.58510326 21.51507858 -64.98159799 20.28069725 -64.37695312 19.046875 C-62.90698477 16.0363798 -61.44852515 13.02085587 -60 10 C-56.28098549 10.58382756 -53.50635811 11.62288013 -50.234375 13.46875 C-49.34363281 13.95730469 -48.45289063 14.44585937 -47.53515625 14.94921875 C-45.69030068 15.97643847 -43.84908234 17.01022013 -42.01171875 18.05078125 C-33.96429998 22.48902146 -33.96429998 22.48902146 -25 23 C-21.86187856 21.47947475 -19.5173267 19.39025012 -17 17 C-16.2678125 16.30938477 -15.535625 15.61876953 -14.78125 14.90722656 C-12.48425208 12.68004322 -10.23697434 10.41237411 -8 8.125 C-6.83791016 6.949375 -6.83791016 6.949375 -5.65234375 5.75 C-3.76352907 3.83786662 -1.87958609 1.92119818 0 0 Z M-1.59472656 28.52880859 C-2.60744629 29.5780249 -2.60744629 29.5780249 -3.640625 30.6484375 C-4.75244141 31.78539062 -4.75244141 31.78539062 -5.88671875 32.9453125 C-7.45074392 34.55328548 -9.01071137 36.16521619 -10.56640625 37.78125 C-11.68595703 38.92207031 -11.68595703 38.92207031 -12.828125 40.0859375 C-13.8476123 41.1385376 -13.8476123 41.1385376 -14.88769531 42.21240234 C-17.96929266 44.82029136 -20.83122264 45.84698458 -24.8046875 46.3671875 C-29.12757293 45.8704256 -32.32431351 44.16284489 -36.125 42.125 C-36.82753906 41.76019531 -37.53007812 41.39539063 -38.25390625 41.01953125 C-40.94847073 39.61876522 -43.62485154 38.22090624 -46.2421875 36.6796875 C-48.60478525 35.7661497 -49.65516507 36.08361483 -52 37 C-53.38373627 38.79254194 -53.38373627 38.79254194 -54.40234375 41.078125 C-54.81806641 41.90957031 -55.23378906 42.74101563 -55.66210938 43.59765625 C-56.08298828 44.47292969 -56.50386719 45.34820312 -56.9375 46.25 C-62.43373034 57.58225853 -62.43373034 57.58225853 -67 61 C-69.91015625 61.55859375 -69.91015625 61.55859375 -73.0625 61.4375 C-74.76599609 61.37369141 -74.76599609 61.37369141 -76.50390625 61.30859375 C-80.84006433 60.92584907 -85.0746087 60.28194553 -89.34375 59.4375 C-91.94921052 59.00836533 -94.36510623 58.92362627 -97 59 C-97.29424751 60.56201604 -97.58517194 62.12465791 -97.875 63.6875 C-98.1534375 65.18410156 -98.1534375 65.18410156 -98.4375 66.7109375 C-98.81832565 68.93770973 -99.15035217 71.17328387 -99.4375 73.4140625 C-100.94846778 85.15104439 -100.94846778 85.15104439 -105 89 C-111.72131889 92.24662509 -119.45276795 92.72087034 -126.77734375 93.5703125 C-130.00836693 93.89830438 -130.00836693 93.89830438 -133 95 C-132.85795259 96.58367747 -132.71119847 98.16693318 -132.5625 99.75 C-132.48128906 100.63171875 -132.40007812 101.5134375 -132.31640625 102.421875 C-132.07784406 104.89771313 -132.07784406 104.89771313 -131.48828125 106.83203125 C-130.73492564 110.17693017 -130.69343454 113.52510489 -130.625 116.9375 C-130.56892578 117.99227539 -130.56892578 117.99227539 -130.51171875 119.06835938 C-130.45095262 122.6704403 -130.79487484 124.70830434 -132.87890625 127.671875 C-137.0994454 130.82011196 -141.57090153 133.05060674 -146.3125 135.3125 C-147.24384766 135.76689453 -148.17519531 136.22128906 -149.13476562 136.68945312 C-151.41888608 137.80222976 -153.70714806 138.90535839 -156 140 C-155.43370177 143.42202202 -154.60114957 146.10824273 -152.93359375 149.14453125 C-152.53076172 149.90443359 -152.12792969 150.66433594 -151.71289062 151.44726562 C-150.86663507 153.01666146 -150.01252135 154.58184677 -149.15039062 156.14257812 C-146.38038664 161.4113658 -145.17252778 165.03607062 -146 171 C-148.70536248 176.31508084 -153.01641904 180.25328195 -157.25 184.375 C-157.8996875 185.01566406 -158.549375 185.65632812 -159.21875 186.31640625 C-160.80800885 187.88229364 -162.40176417 189.44328509 -164 191 C-162.62151573 194.11612698 -161.04365895 196.17526727 -158.59375 198.53125 C-157.60181641 199.49998047 -157.60181641 199.49998047 -156.58984375 200.48828125 C-155.90019531 201.15214844 -155.21054688 201.81601563 -154.5 202.5 C-153.13073857 203.81807409 -151.76597056 205.14083577 -150.40625 206.46875 C-149.80103516 207.05076172 -149.19582031 207.63277344 -148.57226562 208.23242188 C-145.73705343 211.41983435 -144.99068494 213.33218214 -145.05078125 217.640625 C-146.02204001 223.8325789 -149.55451461 228.95735832 -152.66992188 234.28515625 C-153.12302734 235.09339844 -153.57613281 235.90164063 -154.04296875 236.734375 C-154.46602295 237.45850586 -154.88907715 238.18263672 -155.32495117 238.92871094 C-156.20963043 240.99525777 -156.20963043 240.99525777 -155.41723633 243.09838867 C-153.63100692 245.49510545 -151.96033319 246.37529907 -149.28125 247.69140625 C-148.34925781 248.16126953 -147.41726562 248.63113281 -146.45703125 249.11523438 C-145.48121094 249.59283203 -144.50539063 250.07042969 -143.5 250.5625 C-141.569403 251.51504687 -139.64214043 252.47439045 -137.71875 253.44140625 C-136.86216797 253.86107666 -136.00558594 254.28074707 -135.12304688 254.71313477 C-133 256 -133 256 -131 259 C-130.04607926 269.03019597 -131.55848165 279.08956136 -133 289 C-131.90328979 289.20363159 -131.90328979 289.20363159 -130.78442383 289.41137695 C-127.45844287 290.03488294 -124.13554203 290.67352387 -120.8125 291.3125 C-119.66201172 291.52583984 -118.51152344 291.73917969 -117.32617188 291.95898438 C-116.21435547 292.17490234 -115.10253906 292.39082031 -113.95703125 292.61328125 C-112.93585205 292.80704346 -111.91467285 293.00080566 -110.86254883 293.20043945 C-107.1647937 294.2332879 -104.02011596 295.3999551 -101.89501953 298.7331543 C-100.21745457 303.74463858 -99.34836716 308.55441186 -98.875 313.8125 C-98.36365034 319.48508483 -98.36365034 319.48508483 -97 325 C-95.10388566 324.85786703 -93.20811606 324.71113093 -91.3125 324.5625 C-90.25675781 324.48128906 -89.20101562 324.40007812 -88.11328125 324.31640625 C-85.08456045 324.06294575 -85.08456045 324.06294575 -82.484375 323.4765625 C-79.59784119 322.92285633 -76.87562358 322.83107221 -73.9375 322.8125 C-72.91527344 322.79832031 -71.89304687 322.78414063 -70.83984375 322.76953125 C-67.83170788 323.01365782 -66.40946813 323.20293835 -64 325 C-62.54574245 327.17704957 -61.28816345 329.26468204 -60.0625 331.5625 C-59.71767578 332.18785645 -59.37285156 332.81321289 -59.01757812 333.45751953 C-58.32629396 334.71313708 -57.63952696 335.97125319 -56.95751953 337.23193359 C-55.66112394 339.62573698 -54.32976345 341.99961059 -53 344.375 C-52.33240467 345.5828205 -51.66531332 346.79092098 -51 348 C-46.08128014 347.38153621 -42.15278646 345.24673652 -37.8125 343 C-37.08869141 342.63132812 -36.36488281 342.26265625 -35.61914062 341.8828125 C-33.74361151 340.92672882 -31.87156324 339.96382391 -30 339 C-26.40722454 337.20361227 -22.77518772 337.94051183 -19 339 C-15.91827868 340.92910902 -13.52871876 343.40378875 -11 346 C-10.01986406 346.97170394 -9.03798055 347.9416472 -8.0546875 348.91015625 C-5.34802989 351.58575244 -2.6689909 354.286853 0 357 C2.59015829 354.41922634 5.16640232 351.82929417 7.71875 349.2109375 C8.6365625 348.27507812 9.554375 347.33921875 10.5 346.375 C11.4178125 345.43398438 12.335625 344.49296875 13.28125 343.5234375 C16.30650165 340.71551714 18.94899172 338.38552787 23.078125 337.609375 C30.33113086 338.07899408 35.92565093 341.29020086 42.11035156 344.84863281 C43.16561035 345.45143066 43.16561035 345.45143066 44.2421875 346.06640625 C44.8697998 346.43709229 45.49741211 346.80777832 46.14404297 347.18969727 C48.27345198 348.2667487 48.27345198 348.2667487 52 348 C52.30703857 347.38479492 52.61407715 346.76958984 52.93041992 346.13574219 C54.33727326 343.33418861 55.76213533 340.54217778 57.1875 337.75 C57.67025391 336.78191406 58.15300781 335.81382812 58.65039062 334.81640625 C63.42996243 325.51388394 63.42996243 325.51388394 68 323 C74.37428097 321.82840319 81.04343115 323.1813713 87.296875 324.5625 C90.55901981 325.09047719 93.70123369 325.06500032 97 325 C97.21148682 323.89543457 97.21148682 323.89543457 97.42724609 322.76855469 C98.07042185 319.42783342 98.72260695 316.08893295 99.375 312.75 C99.59671875 311.59113281 99.8184375 310.43226563 100.046875 309.23828125 C100.26601563 308.12324219 100.48515625 307.00820313 100.7109375 305.859375 C100.90993652 304.83295898 101.10893555 303.80654297 101.31396484 302.74902344 C101.9548488 300.18092617 102.55397253 298.21137004 104 296 C110.09596995 293.13905046 116.40113149 291.98209256 123 290.8125 C123.96550781 290.63525391 124.93101562 290.45800781 125.92578125 290.27539062 C128.28273994 289.84367047 130.64069973 289.41869903 133 289 C133.08823887 284.57151166 132.85542336 280.52996163 132 276.1875 C129.55858989 262.06978065 129.55858989 262.06978065 132.70361328 257.55371094 C135.08066829 254.91029233 137.07779055 253.54023872 140.203125 251.88671875 C141.67265625 251.0987793 141.67265625 251.0987793 143.171875 250.29492188 C144.18765625 249.76447266 145.2034375 249.23402344 146.25 248.6875 C147.28125 248.13771484 148.3125 247.58792969 149.375 247.02148438 C151.91158103 245.67098984 154.45313523 244.3309689 157 243 C156.73783691 242.45061768 156.47567383 241.90123535 156.20556641 241.33520508 C155.01043932 238.82839826 153.81769989 236.32046249 152.625 233.8125 C152.2125 232.94818359 151.8 232.08386719 151.375 231.19335938 C150.97539062 230.35224609 150.57578125 229.51113281 150.1640625 228.64453125 C149.61419678 227.48981323 149.61419678 227.48981323 149.05322266 226.31176758 C146.94488596 221.68408094 145.36716408 218.16815999 146 213 C148.43452 208.23239833 151.867163 205.19760502 155.89453125 201.8125 C159.10463156 199.04907413 162.0484134 196.03459997 165 193 C163.64415011 189.9626304 162.12706495 187.88067371 159.75 185.5625 C159.12996094 184.95535156 158.50992187 184.34820312 157.87109375 183.72265625 C156.23682896 182.21804086 154.56992202 180.85495896 152.8125 179.5 C148.90906554 176.03028048 146.32751573 172.62765495 145.66015625 167.2734375 C146.10953372 162.94495104 147.76452474 159.85358554 149.8125 156.0625 C150.52927726 154.70023435 151.24414022 153.33695964 151.95703125 151.97265625 C152.47450928 150.98676514 152.47450928 150.98676514 153.00244141 149.98095703 C154.4815989 147.04363841 155.74407026 144.0387953 157 141 C156.35450195 140.66266846 155.70900391 140.32533691 155.04394531 139.9777832 C152.10637723 138.43426599 149.17824753 136.87362196 146.25 135.3125 C145.23421875 134.78205078 144.2184375 134.25160156 143.171875 133.70507812 C142.1921875 133.17978516 141.2125 132.65449219 140.203125 132.11328125 C139.30239258 131.63673096 138.40166016 131.16018066 137.47363281 130.66918945 C134.64900842 128.76315343 132.92542852 126.80067347 131 124 C129.89728212 117.39303776 131.07224726 110.73171791 132.5546875 104.26953125 C133.17350399 101.11573846 133.13927297 98.20327842 133 95 C128.44361634 93.71045745 124.22920149 92.87909926 119.5 92.5625 C114.04567904 92.13069959 108.79262375 91.25873979 104.40625 87.7109375 C101.51378535 84.19177218 100.718031 80.12651365 100.1484375 75.69921875 C100.01953125 74.72275391 99.890625 73.74628906 99.7578125 72.74023438 C99.56832031 71.22913086 99.56832031 71.22913086 99.375 69.6875 C99.2409375 68.66076172 99.106875 67.63402344 98.96875 66.57617188 C98.63995296 64.05148034 98.31724083 61.52616521 98 59 C94.14186658 58.92580513 90.70374632 58.88887611 87 60 C82.7776511 60.98109656 78.64263152 61.36316975 74.3125 61.5625 C72.45044922 61.65724609 72.45044922 61.65724609 70.55078125 61.75390625 C65.50848382 60.68331945 63.74006506 58.21359186 61 54 C59.21786704 50.92219295 57.64736367 47.77551584 56.125 44.5625 C55.52171875 43.32209961 55.52171875 43.32209961 54.90625 42.05664062 C53.92807821 40.04207253 52.95963767 38.02344443 52 36 C48.52854937 36.57857511 45.729201 37.46297905 42.6015625 39.06640625 C41.79203125 39.46923828 40.9825 39.87207031 40.1484375 40.28710938 C38.47078447 41.13502534 36.79626427 41.98916941 35.125 42.84960938 C30.26231329 45.25393781 26.55040188 46.84035389 21 46 C13.79645417 42.10226745 8.2576047 35.23806094 2.93359375 29.125 C1.97646484 28.073125 1.97646484 28.073125 1 27 C-0.24788268 26.88466164 -0.24788268 26.88466164 -1.59472656 28.52880859 Z " fill="#8D54FF" transform="translate(250,50)"/>
<path d="M0 0 C3.11682419 1.38049749 5.19592249 2.96792685 7.56640625 5.40625 C8.21673828 6.06753906 8.86707031 6.72882813 9.53710938 7.41015625 C10.20548828 8.09980469 10.87386719 8.78945312 11.5625 9.5 C12.89483725 10.86682728 14.22938615 12.2315031 15.56640625 13.59375 C16.44727905 14.50157227 16.44727905 14.50157227 17.34594727 15.42773438 C20.1704072 18.11253467 21.75274973 18.97558994 25.6796875 19.36328125 C30.47437716 19.23722059 33.98526461 17.46475328 38.125 15.1875 C39.14013672 14.65286133 39.14013672 14.65286133 40.17578125 14.10742188 C43.23653863 12.49416001 46.27554985 10.84789388 49.3046875 9.17578125 C52 8 52 8 55 9 C56.31860352 11.08544922 56.31860352 11.08544922 57.62890625 13.8046875 C58.34530273 15.26841797 58.34530273 15.26841797 59.07617188 16.76171875 C59.56666016 17.78910156 60.05714844 18.81648438 60.5625 19.875 C61.54137233 21.89400394 62.52177573 23.91226648 63.50390625 25.9296875 C64.15081421 27.27909424 64.15081421 27.27909424 64.81079102 28.65576172 C66.53446087 32.40216634 66.53446087 32.40216634 69.73828125 34.70703125 C76.9805044 35.64514306 84.80861929 34.3425489 91.8046875 32.40234375 C94.87895705 31.83891001 97.88314597 31.94367131 101 32 C101.27263672 33.48886719 101.27263672 33.48886719 101.55078125 35.0078125 C102.2124117 38.5996477 102.89067817 42.18813117 103.57666016 45.77539062 C103.85082606 47.21610556 104.12155736 48.65748008 104.38818359 50.09960938 C104.74642321 52.02707899 105.12281333 53.95114841 105.5 55.875 C105.7165625 57.00679687 105.933125 58.13859375 106.15625 59.3046875 C106.7878661 62.31237642 106.7878661 62.31237642 110 64 C112.12386072 64.50054924 114.26747906 64.91929504 116.41796875 65.2890625 C117.67158203 65.50820312 118.92519531 65.72734375 120.21679688 65.953125 C121.54033849 66.1772375 122.86390655 66.40119385 124.1875 66.625 C125.52289969 66.85611753 126.85818776 67.08788101 128.19335938 67.3203125 C131.46119587 67.8865802 134.73003194 68.44619722 138 69 C137.50176448 74.95736788 136.94769377 80.85346153 135.9375 86.75 C134.71628795 93.36972529 134.71628795 93.36972529 135 100 C140.14559494 106.01755782 147.40419268 108.72224569 154.5 111.7421875 C155.32242187 112.10828125 156.14484375 112.474375 156.9921875 112.8515625 C158.11149658 113.32843506 158.11149658 113.32843506 159.25341797 113.81494141 C161 115 161 115 161.89477539 116.84033203 C162.03643578 119.74782118 161.14099568 121.19033628 159.69140625 123.703125 C159.19189453 124.60160156 158.69238281 125.50007813 158.17773438 126.42578125 C157.10860577 128.29514033 156.0357395 130.16236715 154.95898438 132.02734375 C151.83795234 137.65885843 149.94998239 141.5330041 151 148 C152.53435497 150.70733346 152.53435497 150.70733346 154.875 152.875 C155.68582031 153.70515625 156.49664062 154.5353125 157.33203125 155.390625 C158.21246094 156.25171875 159.09289062 157.1128125 160 158 C160.94318549 158.95136435 161.8845773 159.90451012 162.82421875 160.859375 C165.19895674 163.25782649 167.59089036 165.63615547 170 168 C168.55219992 173.11430679 165.49955536 175.63750041 161.625 179 C154.1884182 184.96408921 154.1884182 184.96408921 150.51171875 193.30859375 C151.11146162 197.84264984 152.64972961 201.08163892 154.8125 205.0625 C155.16892578 205.74376953 155.52535156 206.42503906 155.89257812 207.12695312 C157.49705229 210.19164597 159.12924766 213.22998887 160.82421875 216.24609375 C162 219 162 219 161.82397461 221.0378418 C160.71515519 223.67831044 159.59859848 224.03799724 156.9921875 225.1484375 C156.16976563 225.51453125 155.34734375 225.880625 154.5 226.2578125 C153.63375 226.62648438 152.7675 226.99515625 151.875 227.375 C142.40635168 231.22444764 142.40635168 231.22444764 135 238 C134.5649154 241.17035909 134.50328517 242.96761303 135 246 C135.10183594 246.66789551 135.20367187 247.33579102 135.30859375 248.02392578 C135.65870004 250.04933003 136.06734912 252.05320696 136.5 254.0625 C137.5782623 259.09924776 138.16141105 263.82812085 138 269 C137.23558594 269.10957031 136.47117187 269.21914063 135.68359375 269.33203125 C129.38942302 270.26365941 123.12235027 271.29584831 116.875 272.5 C115.63492187 272.7371875 114.39484375 272.974375 113.1171875 273.21875 C109.86274875 273.84899228 109.86274875 273.84899228 107 276 C104.85456933 280.97524603 104.21547537 286.24016057 103.4375 291.5625 C103.1870919 293.2306032 102.93581507 294.89857625 102.68359375 296.56640625 C102.56741699 297.33742676 102.45124023 298.10844727 102.33154297 298.90283203 C101.95514129 301.28375284 101.50604638 303.6432697 101 306 C100.01902344 305.86722656 99.03804688 305.73445313 98.02734375 305.59765625 C94.44156641 305.12140271 90.85181583 304.68779545 87.25878906 304.27001953 C85.78806802 304.09420701 84.31851863 303.90819663 82.85058594 303.71044922 C80.84177143 303.44270173 78.82704516 303.22052713 76.8125 303 C75.62269531 302.855625 74.43289063 302.71125 73.20703125 302.5625 C69.82014622 302.71735496 69.82014622 302.71735496 67.39453125 305.35546875 C63.69540379 310.47988591 61.23861643 316.39485223 58.57421875 322.09570312 C58.15527344 322.96775391 57.73632812 323.83980469 57.3046875 324.73828125 C56.93327637 325.53274658 56.56186523 326.32721191 56.17919922 327.14575195 C55 329 55 329 52 330 C49.99462891 329.22729492 49.99462891 329.22729492 47.7265625 327.98046875 C46.9015625 327.53509766 46.0765625 327.08972656 45.2265625 326.63085938 C44.36804688 326.15455078 43.50953125 325.67824219 42.625 325.1875 C40.9308738 324.26214773 39.23559337 323.3389049 37.5390625 322.41796875 C36.78834473 322.00313232 36.03762695 321.5882959 35.26416016 321.16088867 C30.40889183 318.67147732 27.40444707 317.41958728 22 319 C19.42982605 320.71543324 19.42982605 320.71543324 17.125 323 C16.2690625 323.804375 15.413125 324.60875 14.53125 325.4375 C11.43880432 328.56812403 8.57045987 331.84130875 5.7890625 335.25 C3.74031493 337.25401509 2.84375552 337.794937 0 338 C-2.04296875 336.49291992 -2.04296875 336.49291992 -4.1875 334.23046875 C-4.96867188 333.42416016 -5.74984375 332.61785156 -6.5546875 331.78710938 C-7.36164063 330.92923828 -8.16859375 330.07136719 -9 329.1875 C-10.59960384 327.50996019 -12.20360514 325.8365998 -13.8125 324.16796875 C-14.87404297 323.04297974 -14.87404297 323.04297974 -15.95703125 321.89526367 C-19.05185193 319.02419616 -20.92871368 317.97891687 -25.17578125 318.0625 C-30.06865534 319.26197884 -33.88108698 321.44384388 -38.1875 324 C-39.76188716 324.92084383 -41.33863206 325.83767116 -42.91796875 326.75 C-43.95087036 327.36101562 -43.95087036 327.36101562 -45.00463867 327.984375 C-46.9990404 328.99951157 -48.81489501 329.54995459 -51 330 C-55.01158788 323.79020956 -58.48944985 317.39757351 -61.86914062 310.828125 C-62.24619141 310.10367187 -62.62324219 309.37921875 -63.01171875 308.6328125 C-63.34647217 307.98199707 -63.68122559 307.33118164 -64.02612305 306.66064453 C-65.01159025 304.82024286 -65.01159025 304.82024286 -67 303 C-73.85260154 302.3988946 -80.2683423 303.62751283 -86.97094727 304.93237305 C-90.70000933 305.64974599 -94.19875537 306.17958636 -98 306 C-100.3413143 299.90052456 -100.97490581 293.69573566 -101.76757812 287.25585938 C-102.61315687 280.63429902 -102.61315687 280.63429902 -106 275 C-108.34137859 273.85241647 -108.34137859 273.85241647 -111.125 273.375 C-112.17429688 273.14941406 -113.22359375 272.92382812 -114.3046875 272.69140625 C-121.19404759 271.40238222 -128.08679629 270.15493095 -135 269 C-135.96038798 265.91238114 -135.98420424 263.6915778 -135.44140625 260.515625 C-135.30283203 259.66226562 -135.16425781 258.80890625 -135.02148438 257.9296875 C-134.87001953 257.04539062 -134.71855469 256.16109375 -134.5625 255.25 C-132.987768 246.17186654 -132.987768 246.17186654 -133 237 C-134.28611715 235.09308183 -134.28611715 235.09308183 -136.4375 234.0625 C-137.23929688 233.59714844 -138.04109375 233.13179687 -138.8671875 232.65234375 C-139.90101563 232.10707031 -140.93484375 231.56179688 -142 231 C-143.46120574 230.21013144 -144.92212063 229.4197247 -146.3828125 228.62890625 C-150.56853577 226.37971037 -154.77841652 224.18107068 -159 222 C-158.47922139 215.16339564 -154.85024721 209.88436522 -151.50585938 204.07617188 C-151.05919922 203.26857422 -150.61253906 202.46097656 -150.15234375 201.62890625 C-149.73976318 200.90775635 -149.32718262 200.18660645 -148.90209961 199.44360352 C-147.65578553 196.06759335 -147.58668023 193.57320014 -148 190 C-149.78462035 187.25874995 -149.78462035 187.25874995 -152.375 184.94140625 C-153.27734375 184.06162109 -154.1796875 183.18183594 -155.109375 182.27539062 C-156.06328125 181.38013672 -157.0171875 180.48488281 -158 179.5625 C-158.96513245 178.63250744 -159.92869327 177.70088094 -160.890625 176.76757812 C-163.24545308 174.49516903 -165.61502142 172.24067469 -168 170 C-166.54957091 166.65415036 -164.72261175 164.49945964 -162.12109375 161.9609375 C-161.36505859 161.21585938 -160.60902344 160.47078125 -159.83007812 159.703125 C-159.04052734 158.93484375 -158.25097656 158.1665625 -157.4375 157.375 C-155.87152109 155.84336831 -154.30761061 154.30961805 -152.74609375 152.7734375 C-152.05185303 152.09716309 -151.3576123 151.42088867 -150.64233398 150.72412109 C-148.63730734 148.6192455 -148.0677265 147.40700401 -147.58984375 144.53515625 C-148.32147262 138.22921217 -152.0675674 133.05318014 -155.17773438 127.61132812 C-155.67724609 126.70705078 -156.17675781 125.80277344 -156.69140625 124.87109375 C-157.15748291 124.05568115 -157.62355957 123.24026855 -158.10375977 122.40014648 C-159.21898735 119.41354818 -159.15092215 117.96518671 -158 115 C-156.12988281 113.59375 -156.12988281 113.59375 -153.703125 112.5 C-152.8265625 112.0875 -151.95 111.675 -151.046875 111.25 C-150.12390625 110.8375 -149.2009375 110.425 -148.25 110 C-139.6841535 106.27595624 -139.6841535 106.27595624 -133 100 C-130.6063872 91.02395201 -134.43088543 79.01306884 -136 70 C-129.51479349 67.51583615 -122.71292823 66.70043904 -115.87890625 65.67578125 C-114.44998047 65.43794922 -114.44998047 65.43794922 -112.9921875 65.1953125 C-112.12964355 65.06141113 -111.26709961 64.92750977 -110.37841797 64.78955078 C-107.31075205 63.77119402 -105.97825945 62.54652955 -104 60 C-103.13050893 57.38590976 -103.13050893 57.38590976 -102.8046875 54.5 C-102.64613281 53.448125 -102.48757812 52.39625 -102.32421875 51.3125 C-102.10185547 49.6728125 -102.10185547 49.6728125 -101.875 48 C-101.56572144 45.83249409 -101.2508385 43.66577864 -100.9296875 41.5 C-100.79804199 40.5409375 -100.66639648 39.581875 -100.53076172 38.59375 C-100.01699073 36.08303107 -99.26079323 34.21700914 -98 32 C-96.51113281 32.19916016 -96.51113281 32.19916016 -94.9921875 32.40234375 C-91.40183243 32.8749812 -87.80800415 33.31188771 -84.21142578 33.734375 C-82.78943195 33.90517753 -81.36838789 34.0841949 -79.94873047 34.2734375 C-78.07326848 34.52106039 -76.19283778 34.73012447 -74.3125 34.9375 C-73.21550781 35.07027344 -72.11851562 35.20304687 -70.98828125 35.33984375 C-67.88016683 35.23334784 -67.88016683 35.23334784 -65.421875 33.140625 C-61.61639168 28.20577244 -59.25670639 22.67919811 -56.66210938 17.04101562 C-56.03852539 15.73100586 -56.03852539 15.73100586 -55.40234375 14.39453125 C-55.03616943 13.59893799 -54.66999512 12.80334473 -54.29272461 11.98364258 C-52.73523601 9.59372854 -51.74562889 8.7774508 -49 8 C-46.83349609 8.67504883 -46.83349609 8.67504883 -44.5234375 9.95703125 C-43.688125 10.41013672 -42.8528125 10.86324219 -41.9921875 11.33007812 C-41.12851563 11.81927734 -40.26484375 12.30847656 -39.375 12.8125 C-38.50359375 13.29009766 -37.6321875 13.76769531 -36.734375 14.25976562 C-35.12149114 15.14485437 -33.51220797 16.03655748 -31.90771484 16.93676758 C-27.92264177 19.15778028 -24.52895685 19.93480248 -20 19 C-16.89402126 17.11836972 -14.5253657 14.5897883 -12 12 C-10.94432501 10.95279481 -9.88690922 9.90734273 -8.828125 8.86328125 C-5.86357205 5.93002563 -2.9269011 2.97080462 0 0 Z M-0.59472656 5.52880859 C-1.60744629 6.5780249 -1.60744629 6.5780249 -2.640625 7.6484375 C-3.75244141 8.78539063 -3.75244141 8.78539063 -4.88671875 9.9453125 C-6.45074392 11.55328548 -8.01071137 13.16521619 -9.56640625 14.78125 C-10.68595703 15.92207031 -10.68595703 15.92207031 -11.828125 17.0859375 C-12.8476123 18.1385376 -12.8476123 18.1385376 -13.88769531 19.21240234 C-16.96929266 21.82029136 -19.83122264 22.84698458 -23.8046875 23.3671875 C-28.12757293 22.8704256 -31.32431351 21.16284489 -35.125 19.125 C-35.82753906 18.76019531 -36.53007812 18.39539063 -37.25390625 18.01953125 C-39.94847073 16.61876522 -42.62485154 15.22090624 -45.2421875 13.6796875 C-47.60478525 12.7661497 -48.65516507 13.08361483 -51 14 C-52.38373627 15.79254194 -52.38373627 15.79254194 -53.40234375 18.078125 C-53.81806641 18.90957031 -54.23378906 19.74101563 -54.66210938 20.59765625 C-55.08298828 21.47292969 -55.50386719 22.34820312 -55.9375 23.25 C-61.43373034 34.58225853 -61.43373034 34.58225853 -66 38 C-68.91015625 38.55859375 -68.91015625 38.55859375 -72.0625 38.4375 C-73.76599609 38.37369141 -73.76599609 38.37369141 -75.50390625 38.30859375 C-79.84006433 37.92584907 -84.0746087 37.28194553 -88.34375 36.4375 C-90.94921052 36.00836533 -93.36510623 35.92362627 -96 36 C-96.29424751 37.56201604 -96.58517194 39.12465791 -96.875 40.6875 C-97.1534375 42.18410156 -97.1534375 42.18410156 -97.4375 43.7109375 C-97.81832565 45.93770973 -98.15035217 48.17328387 -98.4375 50.4140625 C-99.94846778 62.15104439 -99.94846778 62.15104439 -104 66 C-110.72131889 69.24662509 -118.45276795 69.72087034 -125.77734375 70.5703125 C-129.00836693 70.89830438 -129.00836693 70.89830438 -132 72 C-131.85795259 73.58367747 -131.71119847 75.16693318 -131.5625 76.75 C-131.48128906 77.63171875 -131.40007812 78.5134375 -131.31640625 79.421875 C-131.07784406 81.89771313 -131.07784406 81.89771313 -130.48828125 83.83203125 C-129.73492564 87.17693017 -129.69343454 90.52510489 -129.625 93.9375 C-129.56892578 94.99227539 -129.56892578 94.99227539 -129.51171875 96.06835938 C-129.45095262 99.6704403 -129.79487484 101.70830434 -131.87890625 104.671875 C-136.0994454 107.82011196 -140.57090153 110.05060674 -145.3125 112.3125 C-146.24384766 112.76689453 -147.17519531 113.22128906 -148.13476562 113.68945312 C-150.41888608 114.80222976 -152.70714806 115.90535839 -155 117 C-154.43370177 120.42202202 -153.60114957 123.10824273 -151.93359375 126.14453125 C-151.53076172 126.90443359 -151.12792969 127.66433594 -150.71289062 128.44726562 C-149.86663507 130.01666146 -149.01252135 131.58184677 -148.15039062 133.14257812 C-145.38038664 138.4113658 -144.17252778 142.03607062 -145 148 C-147.70536248 153.31508084 -152.01641904 157.25328195 -156.25 161.375 C-156.8996875 162.01566406 -157.549375 162.65632812 -158.21875 163.31640625 C-159.80800885 164.88229364 -161.40176417 166.44328509 -163 168 C-161.62151573 171.11612698 -160.04365895 173.17526727 -157.59375 175.53125 C-156.60181641 176.49998047 -156.60181641 176.49998047 -155.58984375 177.48828125 C-154.90019531 178.15214844 -154.21054688 178.81601563 -153.5 179.5 C-152.13073857 180.81807409 -150.76597056 182.14083577 -149.40625 183.46875 C-148.80103516 184.05076172 -148.19582031 184.63277344 -147.57226562 185.23242188 C-144.73705343 188.41983435 -143.99068494 190.33218214 -144.05078125 194.640625 C-145.02204001 200.8325789 -148.55451461 205.95735832 -151.66992188 211.28515625 C-152.12302734 212.09339844 -152.57613281 212.90164063 -153.04296875 213.734375 C-153.46602295 214.45850586 -153.88907715 215.18263672 -154.32495117 215.92871094 C-155.20963043 217.99525777 -155.20963043 217.99525777 -154.41723633 220.09838867 C-152.63100692 222.49510545 -150.96033319 223.37529907 -148.28125 224.69140625 C-147.34925781 225.16126953 -146.41726562 225.63113281 -145.45703125 226.11523438 C-144.48121094 226.59283203 -143.50539063 227.07042969 -142.5 227.5625 C-140.569403 228.51504687 -138.64214043 229.47439045 -136.71875 230.44140625 C-135.86216797 230.86107666 -135.00558594 231.28074707 -134.12304688 231.71313477 C-132 233 -132 233 -130 236 C-129.04607926 246.03019597 -130.55848165 256.08956136 -132 266 C-130.90328979 266.20363159 -130.90328979 266.20363159 -129.78442383 266.41137695 C-126.45844287 267.03488294 -123.13554203 267.67352387 -119.8125 268.3125 C-118.66201172 268.52583984 -117.51152344 268.73917969 -116.32617188 268.95898438 C-115.21435547 269.17490234 -114.10253906 269.39082031 -112.95703125 269.61328125 C-111.93585205 269.80704346 -110.91467285 270.00080566 -109.86254883 270.20043945 C-106.1647937 271.2332879 -103.02011596 272.3999551 -100.89501953 275.7331543 C-99.21745457 280.74463858 -98.34836716 285.55441186 -97.875 290.8125 C-97.36365034 296.48508483 -97.36365034 296.48508483 -96 302 C-94.10388566 301.85786703 -92.20811606 301.71113093 -90.3125 301.5625 C-89.25675781 301.48128906 -88.20101562 301.40007812 -87.11328125 301.31640625 C-84.08456045 301.06294575 -84.08456045 301.06294575 -81.484375 300.4765625 C-78.59784119 299.92285633 -75.87562358 299.83107221 -72.9375 299.8125 C-71.91527344 299.79832031 -70.89304687 299.78414063 -69.83984375 299.76953125 C-66.83170788 300.01365782 -65.40946813 300.20293835 -63 302 C-61.54574245 304.17704957 -60.28816345 306.26468204 -59.0625 308.5625 C-58.71767578 309.18785645 -58.37285156 309.81321289 -58.01757812 310.45751953 C-57.32629396 311.71313708 -56.63952696 312.97125319 -55.95751953 314.23193359 C-54.66112394 316.62573698 -53.32976345 318.99961059 -52 321.375 C-51.33240467 322.5828205 -50.66531332 323.79092098 -50 325 C-45.08128014 324.38153621 -41.15278646 322.24673652 -36.8125 320 C-36.08869141 319.63132812 -35.36488281 319.26265625 -34.61914062 318.8828125 C-32.74361151 317.92672882 -30.87156324 316.96382391 -29 316 C-25.40722454 314.20361227 -21.77518772 314.94051183 -18 316 C-14.91827868 317.92910902 -12.52871876 320.40378875 -10 323 C-9.01986406 323.97170394 -8.03798055 324.9416472 -7.0546875 325.91015625 C-4.34802989 328.58575244 -1.6689909 331.286853 1 334 C3.59015829 331.41922634 6.16640232 328.82929417 8.71875 326.2109375 C9.6365625 325.27507812 10.554375 324.33921875 11.5 323.375 C12.4178125 322.43398438 13.335625 321.49296875 14.28125 320.5234375 C17.30650165 317.71551714 19.94899172 315.38552787 24.078125 314.609375 C31.33113086 315.07899408 36.92565093 318.29020086 43.11035156 321.84863281 C44.16561035 322.45143066 44.16561035 322.45143066 45.2421875 323.06640625 C45.8697998 323.43709229 46.49741211 323.80777832 47.14404297 324.18969727 C49.27345198 325.2667487 49.27345198 325.2667487 53 325 C53.30703857 324.38479492 53.61407715 323.76958984 53.93041992 323.13574219 C55.33727326 320.33418861 56.76213533 317.54217778 58.1875 314.75 C58.67025391 313.78191406 59.15300781 312.81382812 59.65039062 311.81640625 C64.42996243 302.51388394 64.42996243 302.51388394 69 300 C75.37428097 298.82840319 82.04343115 300.1813713 88.296875 301.5625 C91.55901981 302.09047719 94.70123369 302.06500032 98 302 C98.21148682 300.89543457 98.21148682 300.89543457 98.42724609 299.76855469 C99.07042185 296.42783342 99.72260695 293.08893295 100.375 289.75 C100.59671875 288.59113281 100.8184375 287.43226563 101.046875 286.23828125 C101.26601563 285.12324219 101.48515625 284.00820313 101.7109375 282.859375 C101.90993652 281.83295898 102.10893555 280.80654297 102.31396484 279.74902344 C102.9548488 277.18092617 103.55397253 275.21137004 105 273 C111.09596995 270.13905046 117.40113149 268.98209256 124 267.8125 C124.96550781 267.63525391 125.93101562 267.45800781 126.92578125 267.27539062 C129.28273994 266.84367047 131.64069973 266.41869903 134 266 C134.08823887 261.57151166 133.85542336 257.52996163 133 253.1875 C130.55858989 239.06978065 130.55858989 239.06978065 133.70361328 234.55371094 C136.08066829 231.91029233 138.07779055 230.54023872 141.203125 228.88671875 C142.67265625 228.0987793 142.67265625 228.0987793 144.171875 227.29492188 C145.18765625 226.76447266 146.2034375 226.23402344 147.25 225.6875 C148.28125 225.13771484 149.3125 224.58792969 150.375 224.02148438 C152.91158103 222.67098984 155.45313523 221.3309689 158 220 C157.73783691 219.45061768 157.47567383 218.90123535 157.20556641 218.33520508 C156.01043932 215.82839826 154.81769989 213.32046249 153.625 210.8125 C153.2125 209.94818359 152.8 209.08386719 152.375 208.19335938 C151.97539062 207.35224609 151.57578125 206.51113281 151.1640625 205.64453125 C150.61419678 204.48981323 150.61419678 204.48981323 150.05322266 203.31176758 C147.94488596 198.68408094 146.36716408 195.16815999 147 190 C149.43452 185.23239833 152.867163 182.19760502 156.89453125 178.8125 C160.10463156 176.04907413 163.0484134 173.03459997 166 170 C164.64415011 166.9626304 163.12706495 164.88067371 160.75 162.5625 C160.12996094 161.95535156 159.50992187 161.34820312 158.87109375 160.72265625 C157.23682896 159.21804086 155.56992202 157.85495896 153.8125 156.5 C149.90906554 153.03028048 147.32751573 149.62765495 146.66015625 144.2734375 C147.10953372 139.94495104 148.76452474 136.85358554 150.8125 133.0625 C151.52927726 131.70023435 152.24414022 130.33695964 152.95703125 128.97265625 C153.47450928 127.98676514 153.47450928 127.98676514 154.00244141 126.98095703 C155.4815989 124.04363841 156.74407026 121.0387953 158 118 C157.35450195 117.66266846 156.70900391 117.32533691 156.04394531 116.9777832 C153.10637723 115.43426599 150.17824753 113.87362196 147.25 112.3125 C146.23421875 111.78205078 145.2184375 111.25160156 144.171875 110.70507812 C143.1921875 110.17978516 142.2125 109.65449219 141.203125 109.11328125 C140.30239258 108.63673096 139.40166016 108.16018066 138.47363281 107.66918945 C135.64900842 105.76315343 133.92542852 103.80067347 132 101 C130.89728212 94.39303776 132.07224726 87.73171791 133.5546875 81.26953125 C134.17350399 78.11573846 134.13927297 75.20327842 134 72 C129.44361634 70.71045745 125.22920149 69.87909926 120.5 69.5625 C115.04567904 69.13069959 109.79262375 68.25873979 105.40625 64.7109375 C102.51378535 61.19177218 101.718031 57.12651365 101.1484375 52.69921875 C101.01953125 51.72275391 100.890625 50.74628906 100.7578125 49.74023438 C100.56832031 48.22913086 100.56832031 48.22913086 100.375 46.6875 C100.2409375 45.66076172 100.106875 44.63402344 99.96875 43.57617188 C99.63995296 41.05148034 99.31724083 38.52616521 99 36 C95.14186658 35.92580513 91.70374632 35.88887611 88 37 C83.7776511 37.98109656 79.64263152 38.36316975 75.3125 38.5625 C73.45044922 38.65724609 73.45044922 38.65724609 71.55078125 38.75390625 C66.50848382 37.68331945 64.74006506 35.21359186 62 31 C60.21786704 27.92219295 58.64736367 24.77551584 57.125 21.5625 C56.52171875 20.32209961 56.52171875 20.32209961 55.90625 19.05664062 C54.92807821 17.04207253 53.95963767 15.02344443 53 13 C49.52854937 13.57857511 46.729201 14.46297905 43.6015625 16.06640625 C42.79203125 16.46923828 41.9825 16.87207031 41.1484375 17.28710938 C39.47078447 18.13502534 37.79626427 18.98916941 36.125 19.84960938 C31.26231329 22.25393781 27.55040188 23.84035389 22 23 C14.79645417 19.10226745 9.2576047 12.23806094 3.93359375 6.125 C2.97646484 5.073125 2.97646484 5.073125 2 4 C0.75211732 3.88466164 0.75211732 3.88466164 -0.59472656 5.52880859 Z " fill="#F6F1FF" transform="translate(249,73)"/>
</svg>
